<?xml version="1.0" encoding="UTF-8" standalone="no"?>
<svg
   version="1.1"
   viewBox="0 0 1496.921 1728.5469"
   id="svg35"
   sodipodi:docname="hex.svg"
   width="1496.921"
   height="1728.5469"
   inkscape:version="1.4.2 (1:1.4.2+202505120737+ebf0e940d0)"
   xmlns:inkscape="http://www.inkscape.org/namespaces/inkscape"
   xmlns:sodipodi="http://sodipodi.sourceforge.net/DTD/sodipodi-0.dtd"
   xmlns="http://www.w3.org/2000/svg"
   xmlns:svg="http://www.w3.org/2000/svg">
  <defs
     id="defs35">
    <linearGradient
       id="gradient_1_"
       gradientUnits="userSpaceOnUse"
       x1="305.6709"
       y1="404.72559"
       x2="305.6709"
       y2="134.4175"
       gradientTransform="matrix(2.4466131,0,0,2.4466131,-0.20306889,-298.78778)">
      <stop
         offset="0"
         style="stop-color:#FFFFFF;stop-opacity:0"
         id="stop1" />
      <stop
         offset="1"
         style="stop-color:#FFFFFF"
         id="stop2" />
    </linearGradient>
  </defs>
  <sodipodi:namedview
     id="namedview35"
     pagecolor="#ffffff"
     bordercolor="#000000"
     borderopacity="0.25"
     inkscape:showpageshadow="2"
     inkscape:pageopacity="0.0"
     inkscape:pagecheckerboard="0"
     inkscape:deskcolor="#d1d1d1"
     inkscape:zoom="0.43443851"
     inkscape:cx="463.81708"
     inkscape:cy="862.03224"
     inkscape:window-width="1870"
     inkscape:window-height="1052"
     inkscape:window-x="0"
     inkscape:window-y="0"
     inkscape:window-maximized="1"
     inkscape:current-layer="svg35" />
  <polygon
     id="fill"
     fill="#e1f0fb"
     points="611.917,572.024 306,748.629 0.083,572.021 0.083,218.728 306,42.123 611.917,218.728 "
     transform="matrix(2.4466131,0,0,2.4466131,-0.20306889,-103.05868)"
     style="fill:#28afb0;fill-opacity:1" />
  <path
     id="gradient"
     opacity="0.2"
     fill="url(#gradient_1_)"
     d="M 747.45993,30.078616 144.68543,379.04153 c 90.4733,182.35831 326.1139,312.37623 602.5518,312.37623 277.28927,0 513.53177,-130.82041 603.38607,-314.06194 z"
     style="display:inline;fill:url(#gradient_1_);stroke-width:2.44661" />
  <path
     id="outline"
     fill="#ec6b00"
     d="M 1437.231,397.65536 871.30253,70.893046 748.46063,1.63887e-5 625.61863,70.893046 59.690031,397.65536 3.11127e-5,432.0841 v 864.3713 L 59.687631,1330.8817 632.54253,1661.725 l 115.9181,66.8219 115.9155,-66.8219 572.85487,-330.836 59.69,-34.4238 V 432.0841 Z m 0,866.41174 L 748.46063,1661.725 59.690031,1264.0671 V 468.55087 L 748.46063,70.893046 v 0 L 1437.231,468.55087 Z"
     style="stroke-width:2.44661;fill:#19647e;fill-opacity:1" />
  <g
     id="g39"
     transform="translate(-11.002661)">
    <g
       id="g38"
       transform="matrix(1.1852431,0,0,1.1852431,-142.87002,-130.21379)">
      <path
         id="path35"
         style="fill:#ffffff;fill-opacity:1;stroke-width:1.34859"
         d="m 922.91016,494.38867 a 0.39109173,0.39109173 0 0 0 -0.35743,0.20703 l -68.38671,123.23438 a 0.87658491,0.89007083 42 0 1 -1.49805,0.082 l -38.09766,-54.45703 a 0.20228883,0.1888029 35.7 0 0 -0.34961,0.0547 l -31.6914,130.30078 -14.08008,62.26367 -2.72461,11.07226 a 0.75521162,0.75521162 0 0 0 0.53906,0.9043 c 1.1508,0.31467 2.53131,0.41376 4.14063,0.29688 l 295.248,-0.0274 a 1.4699655,1.4834514 89.7 0 0 1.4825,-1.48437 l -0.2286,-55.98047 -0.068,-79.56641 v 0 l 0.094,-58.55468 0.094,-70.9629 a 0.26971843,0.26971843 0 0 0 -0.4843,-0.17578 l -75.64261,92.23047 a 0.79566938,0.78218346 47.9 0 1 -1.26758,-0.0684 l -66.40625,-99.18945 a 0.39109173,0.39109173 0 0 0 -0.3164,-0.17969 z m 15.16992,143.28125 a 1.5913388,1.5913388 0 0 1 0.1582,0.16016 l 63.58592,74.91406 -63.58597,-74.91406 a 1.5913388,1.5913388 0 0 0 -0.15625,-0.16016 z m -118.35742,57.5293 41.57812,48.9668 a 1.2407048,1.2407048 0 0 0 0.11328,0.11914 1.2407048,1.2407048 0 0 1 -0.11523,-0.11914 z"
         inkscape:label="fc-bg" />
      <path
         fill="#ebf2fa"
         d="m 1066.9332,572.73344 -0.094,58.55587 q -5.8664,5.31345 -10.3977,11.32817 -7.2958,9.66941 -7.5521,9.97959 -23.5734,28.81941 -46.1488,60.10675 a 0.59338056,0.59338056 0 0 1 -0.917,0.0405 l -63.58616,-74.9143 a 1.5913388,1.5913388 0 0 0 -2.52187,0.13486 l -72.43288,106.09375 a 1.2407048,1.2407048 0 0 1 -1.98243,0.10788 l -41.5771,-48.96738 a 0.97098637,0.95750044 44.3 0 0 -1.48345,0.0135 l -43.22238,53.49865 a 0.9305286,1.0519019 75.1 0 0 -0.13486,0.20229 q -2.46792,4.51778 -6.43278,7.16102 l 14.0793,-62.2645 34.34864,-49.27756 a 0.39109173,0.39109173 0 0 1 0.64732,0.0135 l 38.97432,60.45739 a 0.72823977,0.72823977 0 0 0 1.25419,-0.0674 l 67.01114,-134.9672 a 0.4315495,0.4315495 0 0 1 0.71476,-0.0944 l 74.44229,86.22898 a 0.84961307,0.84961307 0 0 0 1.30815,-0.027 z"
         id="path21"
         style="fill:#28afb0;fill-opacity:0.2;stroke-width:1.34859" />
      <path
         id="path22"
         style="fill:#28afb0;fill-opacity:0.40000001;stroke-width:1.34859"
         d="m 1066.8388,631.28931 0.067,79.56694 -64.7594,35.23871 a 1.0653878,1.0923597 52.2 0 1 -1.2542,-0.14834 l -63.18151,-58.59633 a 0.91704268,0.90355676 43.5 0 0 -1.28116,0.027 l -73.4713,76.57306 a 2.0768319,2.0768319 0 0 1 -2.7781,0.21578 l -42.58855,-32.9596 a 0.7417257,0.75521162 44.6 0 0 -0.91704,0.0135 q -17.63958,13.95793 -41.07812,31.69191 -2.50838,1.88803 -5.19208,5.43483 -2.41398,0.17532 -4.14017,-0.29669 a 0.75521162,0.75521162 0 0 1 -0.53944,-0.90356 l 2.72416,-11.07194 q 3.96486,-2.64324 6.43278,-7.16102 a 0.9305286,1.0519019 75.1 0 1 0.13486,-0.20229 l 43.22238,-53.49865 a 0.97098637,0.95750044 44.3 0 1 1.48345,-0.0135 l 41.5771,48.96738 a 1.2407048,1.2407048 0 0 0 1.98243,-0.10788 l 72.43288,-106.09375 a 1.5913388,1.5913388 0 0 1 2.52187,-0.13486 l 63.58616,74.9143 a 0.59338056,0.59338056 0 0 0 0.917,-0.0405 q 22.5754,-31.28734 46.1488,-60.10675 0.2563,-0.31018 7.5521,-9.97959 4.5313,-6.01472 10.3977,-11.32817 z m 0.094,-58.55587 -65.7034,83.34299 a 0.84961307,0.84961307 0 0 1 -1.30815,0.027 l -74.44229,-86.22898 a 0.4315495,0.4315495 0 0 0 -0.71476,0.0944 l -67.01154,134.96711 a 0.72823977,0.72823977 0 0 1 -1.25419,0.0674 l -38.97432,-60.45739 a 0.39109173,0.39109173 0 0 0 -0.64732,-0.0135 l -34.34864,49.27756 31.69191,-130.30097 a 0.20228883,0.1888029 35.7 0 1 0.35064,-0.0539 l 38.09773,54.45615 a 0.87658491,0.89007083 42 0 0 1.49693,-0.0809 l 68.38711,-123.23435 a 0.39109173,0.39109173 0 0 1 0.6743,-0.027 l 66.40468,99.18896 a 0.79566938,0.78218346 47.9 0 0 1.26767,0.0674 l 75.64254,-92.23022 a 0.26971843,0.26971843 0 0 1 0.4855,0.17532 z" />
      <path
         fill="#91bade"
         d="m 1066.9062,710.85625 0.2293,55.98006 a 1.4699655,1.4834514 89.7 0 1 -1.4835,1.48345 l -295.24726,0.027 q 2.6837,-3.5468 5.19208,-5.43483 23.43854,-17.73398 41.07812,-31.69191 a 0.7417257,0.75521162 44.6 0 1 0.91704,-0.0135 l 42.58855,32.9596 a 2.0768319,2.0768319 0 0 0 2.7781,-0.21578 l 73.4713,-76.57306 a 0.91704268,0.90355676 43.5 0 1 1.28116,-0.027 l 63.18151,58.59633 a 1.0653878,1.0923597 52.2 0 0 1.2542,0.14834 z"
         id="path23"
         style="fill:#28afb0;fill-opacity:0.5;stroke-width:1.34859" />
    </g>
    <path
       id="path24"
       style="fill:#ebebeb;fill-opacity:1;stroke-width:1.57964"
       d="m 345.39698,882.8912 c -11.34181,0 -18.32823,0.39004 -20.96101,1.16932 -6.55028,1.95875 -12.06923,6.1044 -16.5554,12.43347 -18.22901,25.73758 -41.03141,56.91765 -68.41191,93.54419 -5.57612,7.45588 -7.50437,13.61622 -7.06208,23.04672 0.25275,5.5076 0.47879,8.9106 0.67877,10.2059 1.7376,11.1838 9.68239,20.0761 19.6499,24.9256 5.14962,2.5116 14.09148,3.5233 19.30428,3.5233 364.03279,0.074 689.30663,0.069 975.82137,-0.016 13.785,0 24.5271,-4.9648 32.2252,-14.8955 6.8557,-8.846 6.7124,-18.8605 6.3649,-30.4234 -0.116,-3.9702 -1.3251,-7.61377 -3.6315,-10.93101 -13.648,-19.6191 -37.0694,-52.41435 -70.2629,-98.38182 -10.7889,-14.91179 -20.3318,-14.18281 -39.8087,-14.18281 -231.33282,-0.021 -507.11612,-0.029 -827.35092,-0.0185 z m 415.08384,53.80335 c 49.68498,0.0105 75.90018,0.0331 78.64876,0.0648 6.20276,0.0842 10.68814,2.74636 13.45772,7.99074 8.69859,16.51249 17.19309,30.66741 25.48098,42.46203 a 0.42650226,0.42650226 0 0 1 -0.34862,0.66333 c -50.56958,0.0948 -89.64778,0.14186 -117.23884,0.14186 -27.59091,0 -66.66736,-0.052 -117.22635,-0.15733 a 0.42650226,0.42650226 0 0 1 -0.36412,-0.66335 c 8.29832,-11.79462 16.79787,-25.94953 25.49631,-42.46202 2.76974,-5.24439 7.25512,-7.90648 13.45789,-7.99074 2.74857,-0.0316 28.96203,-0.0493 78.63627,-0.0493 z m -0.91634,76.99195 c 166.97831,-0.011 333.82362,-0.011 500.53862,0 a 0.60026244,0.61605882 33.2 0 1 0.2376,1.1693 c -3.5384,1.5586 -7.0211,2.7108 -10.4437,3.4585 -7.4453,1.6323 -16.2844,2.4399 -26.5205,2.4188 -24.5581,-0.063 -179.1612,-0.091 -463.81202,-0.08 -284.66119,0.01 -439.26748,0.048 -463.8149,0.111 -10.23604,0.021 -19.07539,-0.7785 -26.5207,-2.4003 -3.42259,-0.7477 -6.90507,-1.903 -10.44345,-3.4616 a 0.61605882,0.60026244 56.8 0 1 0.23758,-1.1693 c 166.70441,-0.021 333.55272,-0.036 500.54147,-0.046 z m -117.7001,-476.782 c 43.48744,30.51861 74.89064,52.39659 99.0433,69.18815 8.84598,6.129 15.81218,14.02719 10.0623,24.94248 q -2.33787,4.42299 -14.02718,12.21061 -35.22594,23.44181 -95.28377,65.33382 a 0.61605882,0.61605882 0 0 1 -0.96357,-0.50548 v -32.90387 a 3.617371,3.6015747 72.7 0 1 1.54804,-2.96971 l 68.73004,-48.06839 a 1.784991,1.7691945 44.7 0 0 -0.0158,-2.92233 l -69.36191,-47.34175 a 2.1641041,2.1799004 17.4 0 1 -0.93199,-1.78499 v -34.54668 a 0.75822623,0.77402262 17.5 0 1 1.20052,-0.63186 z m -188.4982,85.61639 q 0,0.64764 1.45328,1.65861 50.73797,35.05217 68.28773,47.49971 a 2.9539231,2.9697194 17.6 0 1 1.24792,2.41685 v 33.50412 a 0.78981899,0.78981899 0 0 1 -1.24792,0.64765 q -41.07058,-28.87578 -99.46979,-69.03017 -10.66256,-7.32952 -10.66256,-16.66518 -0.0158,-9.33566 10.63096,-16.68099 58.33603,-40.24916 99.35923,-69.18813 a 0.78981899,0.78981899 0 0 1 1.24792,0.64764 l 0.0631,33.50413 a 2.9697194,2.9539231 72.3 0 1 -1.2479,2.41685 q -17.53399,12.47913 -68.20877,47.59449 -1.46908,1.02676 -1.45327,1.67442 z m 139.76638,2.76435 q -12.47915,49.23732 -22.49406,90.52906 c -2.10091,8.62482 -2.85914,16.06492 -8.48265,20.25096 q -2.1483,1.59543 -7.835,1.59543 c -8.48266,0 -16.30187,0.69504 -16.64939,-8.94075 q -0.25274,-6.61868 1.54804,-13.85343 13.17418,-52.91786 24.35803,-96.97397 12.47913,-49.23732 22.49404,-90.52906 c 2.10092,-8.62482 2.85914,-16.06491 8.48266,-20.25095 q 2.1483,-1.59544 7.835,-1.59544 c 8.48266,0 16.30187,-0.69504 16.64939,8.94076 q 0.25273,6.61868 -1.54805,13.85342 -13.18998,52.90208 -24.35801,96.97397 z M 760.35429,365.70478 c -236.13471,0 -367.05115,0.052 -392.74665,0.15733 -17.84991,0.0631 -31.84503,2.95404 -40.95954,19.47706 -1.75862,3.16982 -2.64273,6.44785 -2.65332,9.83879 -0.0743,35.84727 -0.0869,186.11921 -0.0331,450.81388 0,7.71917 2.73988,12.93259 8.21602,15.63904 2.83276,1.40061 8.94991,2.11083 18.35396,2.13189 34.60466,0.0948 171.21886,0.13695 409.83897,0.12652 238.62012,-0.0105 375.23127,-0.0625 409.83587,-0.15733 9.4042,-0.021 15.5243,-0.73128 18.3571,-2.13189 5.4761,-2.70645 8.2128,-7.91988 8.2128,-15.63903 0.032,-264.69468 0.016,-414.96662 -0.064,-450.81388 -0.015,-3.39095 -0.8945,-6.67207 -2.6533,-9.84188 -9.1303,-16.52302 -23.125,-19.41388 -40.9749,-19.47706 -25.6849,-0.0948 -156.59342,-0.13395 -392.72829,-0.12336 z m -394.86321,40.20055 h 789.67712 a 0.75822623,0.75822623 0 0 1 0.759,0.75897 v 416.15439 a 0.75822623,0.75822623 0 0 1 -0.759,0.75897 H 365.49108 a 0.75822623,0.75822623 0 0 1 -0.75886,-0.75897 V 406.6643 a 0.75822623,0.75822623 0 0 1 0.75886,-0.75897 z"
       inkscape:label="laptop" />
  </g>
  <text
     xml:space="preserve"
     style="font-style:normal;font-variant:normal;font-weight:normal;font-stretch:normal;font-size:133.333px;font-family:Monospace;-inkscape-font-specification:Monospace;text-align:start;writing-mode:lr-tb;direction:ltr;text-anchor:start;fill:#ebebeb;fill-opacity:1;stroke:#ff0000;stroke-width:1.13386;stroke-dashoffset:36.474"
     x="740.84332"
     y="1196.8058"
     id="text38"><tspan
       sodipodi:role="line"
       id="tspan38"
       x="740.84332"
       y="1196.8058"
       style="font-size:133.333px;text-align:center;text-anchor:middle;stroke:none">Open Source</tspan><tspan
       sodipodi:role="line"
       x="740.84332"
       y="1363.472"
       style="font-size:133.333px;text-align:center;text-anchor:middle;stroke:none"
       id="tspan39">Forecasting</tspan><tspan
       sodipodi:role="line"
       x="740.84332"
       y="1530.1383"
       style="font-size:133.333px;text-align:center;text-anchor:middle;stroke:none"
       id="tspan40">2O25</tspan></text>
</svg>
